<?xml version="1.0" standalone="no"?>
<!DOCTYPE svg PUBLIC "-//W3C//DTD SVG 20010904//EN"
 "http://www.w3.org/TR/2001/REC-SVG-20010904/DTD/svg10.dtd">
<svg version="1.0" xmlns="http://www.w3.org/2000/svg"
 width="2000.000000pt" height="2000.000000pt" viewBox="0 0 2000.000000 2000.000000"
 preserveAspectRatio="xMidYMid meet">
<metadata>
Created by potrace 1.11, written by Peter Selinger 2001-2013
</metadata>
<g transform="translate(0.000000,2000.000000) scale(0.100000,-0.100000)"
fill="#000000" stroke="none">
<path d="M2354 13651 c-2 -2 -4 -509 -4 -1126 l0 -1122 1203 -1 c661 0 1210
-1 1220 -1 16 -1 17 -124 17 -2441 l0 -2440 1128 0 1127 0 0 2436 c0 1406 3
2438 9 2441 4 3 554 6 1220 6 l1212 0 0 1123 c0 618 -3 1124 -6 1125 -17 4
-7122 3 -7126 0z"/>
<path d="M10499 13645 c-3 -35 -3 -7075 0 -7098 l3 -27 2767 1 c2799 0 2832 1
2976 33 144 32 208 51 315 94 311 125 633 401 819 702 41 66 111 201 130 250
50 135 108 357 109 420 0 8 3 38 7 65 6 42 10 3771 5 3935 -2 49 -21 199 -35
273 -21 106 -87 292 -143 402 -44 84 -148 240 -208 312 -306 360 -675 572
-1094 628 -30 4 -64 10 -75 12 -41 10 -5575 8 -5576 -2z m4854 -2244 c16 -1
17 -71 17 -1316 l0 -1314 -1315 -1 -1315 0 0 1314 0 1315 23 3 c17 2 2522 1
2590 -1z"/>
</g>
</svg>
